<?xml version="1.0" standalone="no"?>
<!DOCTYPE svg PUBLIC "-//W3C//DTD SVG 20010904//EN"
 "http://www.w3.org/TR/2001/REC-SVG-20010904/DTD/svg10.dtd">
<svg version="1.0" xmlns="http://www.w3.org/2000/svg"
 width="474.000000pt" height="267.000000pt" viewBox="0 0 474.000000 267.000000"
 preserveAspectRatio="xMidYMid meet">

<g transform="translate(0.000000,267.000000) scale(0.100000,-0.100000)"
fill="#000000" stroke="none">
<path d="M1198 2217 c-512 -488 -941 -911 -928 -915 13 -5 13 -5 335 131 143
60 350 147 460 193 110 46 211 90 225 97 l25 13 3 284 c1 156 -1 287 -5 291
-5 4 -56 -38 -115 -94z"/>
<path d="M1806 1915 c-20 -18 -26 -34 -26 -64 0 -91 125 -125 159 -42 16 37
10 48 -28 49 -34 1 -51 -15 -27 -24 23 -9 20 -31 -5 -39 -52 -17 -81 70 -34
101 23 15 27 15 50 0 24 -16 26 -16 32 0 17 44 -77 60 -121 19z"/>
<path d="M2120 1938 c-2 -7 -2 -116 -1 -140 0 -17 7 -28 15 -28 8 0 17 12 21
28 l7 27 22 -27 c23 -30 46 -37 46 -15 0 7 -5 18 -11 24 -9 9 -8 20 3 44 19
39 12 68 -19 80 -22 8 -82 13 -83 7z m70 -58 c0 -23 -25 -27 -33 -6 -7 16 1
26 20 26 7 0 13 -9 13 -20z"/>
<path d="M2410 1874 c0 -36 4 -73 10 -83 13 -26 65 -34 101 -16 28 15 29 18
29 90 0 41 -3 75 -7 75 -20 -1 -28 -19 -30 -69 -3 -57 -16 -83 -39 -74 -16 6
-38 78 -29 93 10 16 -5 50 -21 50 -11 0 -14 -15 -14 -66z"/>
<path d="M2732 1860 c2 -56 7 -85 16 -88 7 -2 12 5 12 15 0 25 19 43 45 43 29
0 45 19 45 51 0 35 -20 50 -75 57 l-46 5 3 -83z m73 20 c0 -8 -8 -16 -17 -18
-13 -2 -18 3 -18 18 0 15 5 20 18 18 9 -2 17 -10 17 -18z"/>
<path d="M3036 1914 c-34 -35 -35 -83 -2 -121 52 -60 156 -20 156 60 -1 78
-98 117 -154 61z m102 -26 c7 -7 12 -24 12 -38 0 -46 -44 -66 -82 -36 -35 26
-14 86 30 86 16 0 33 -5 40 -12z"/>
<path d="M1225 1573 c-33 -14 -84 -36 -113 -49 -29 -13 -58 -24 -65 -24 -7 0
-17 -4 -22 -8 -6 -4 -44 -22 -85 -40 -159 -66 -436 -183 -455 -191 -75 -32
-98 -42 -168 -71 -42 -17 -75 -36 -71 -41 3 -5 64 -9 135 -9 95 0 131 -3 134
-12 8 -25 15 -328 15 -661 l0 -337 393 2 392 3 2 733 c3 833 14 750 -92 705z"/>
<path d="M1777 1533 c-4 -3 -7 -321 -7 -705 l0 -698 378 2 377 3 5 255 5 255
288 3 288 2 -3 158 -3 157 -287 3 -288 2 0 105 c0 58 1 106 3 107 1 1 147 4
325 8 l323 5 0 170 0 170 -699 3 c-384 1 -702 -1 -705 -5z"/>
<path d="M3709 1303 c-78 -126 -150 -241 -159 -258 -9 -16 -41 -67 -69 -112
-62 -97 -63 -85 29 -231 78 -124 69 -108 207 -334 62 -101 121 -195 130 -211
l18 -27 437 0 c371 0 438 2 438 14 0 8 -4 16 -8 18 -5 1 -33 41 -62 88 -29 47
-63 101 -76 120 -12 19 -53 85 -91 145 -37 61 -91 145 -118 189 -28 43 -79
124 -115 181 -36 56 -76 121 -90 143 -14 23 -44 72 -67 108 -24 36 -43 68 -43
71 0 2 -15 25 -32 51 -18 26 -40 59 -48 73 -41 71 -126 199 -132 199 -4 0 -71
-102 -149 -227z"/>
<path d="M3325 688 c-39 -68 -210 -347 -266 -435 -33 -50 -62 -99 -65 -107 -5
-14 16 -16 197 -16 l204 1 29 47 c16 26 44 70 61 97 60 95 65 104 65 119 0 12
-51 101 -159 274 -18 28 -36 52 -40 52 -4 0 -15 -15 -26 -32z"/>
</g>
</svg>
