<?xml version="1.0" standalone="no"?>
<!DOCTYPE svg PUBLIC "-//W3C//DTD SVG 20010904//EN"
 "http://www.w3.org/TR/2001/REC-SVG-20010904/DTD/svg10.dtd">
<svg version="1.0" xmlns="http://www.w3.org/2000/svg"
 width="2000.000000pt" height="2000.000000pt" viewBox="0 0 2000.000000 2000.000000"
 preserveAspectRatio="xMidYMid meet">

<g transform="translate(0.000000,2000.000000) scale(0.100000,-0.100000)"
fill="#000000" stroke="none">
<path d="M17215 14430 c-423 -36 -836 -195 -1194 -462 -93 -70 -361 -325 -361
-345 0 -24 230 -112 375 -144 85 -19 328 -16 441 4 51 10 99 15 107 11 10 -3
26 4 42 20 22 22 25 34 26 98 3 129 -2 202 -18 261 -30 109 -2 223 63 258 41
21 180 19 223 -5 61 -32 117 -94 146 -159 l28 -62 -11 -160 c-18 -235 -18
-231 21 -244 143 -46 382 -87 642 -110 144 -13 205 -28 333 -82 136 -58 199
-68 300 -44 68 15 87 16 129 6 116 -29 151 -85 160 -249 5 -89 3 -119 -12
-167 -38 -119 -131 -214 -233 -237 -44 -9 -69 -9 -150 6 -53 10 -138 24 -189
31 -50 8 -158 32 -240 54 -267 71 -425 103 -578 117 -197 18 -202 17 -226 -7
-24 -24 -23 -42 11 -184 30 -123 29 -217 -3 -335 -39 -141 -49 -293 -36 -517
6 -104 8 -246 4 -318 -8 -155 7 -253 55 -368 45 -108 94 -179 198 -289 71 -74
105 -101 152 -122 130 -59 294 -39 500 59 63 30 174 73 245 95 406 127 425
135 620 265 157 104 389 226 480 251 41 11 105 17 200 19 l140 2 21 69 c31 97
71 284 84 384 16 133 13 503 -6 633 -96 669 -494 1275 -1069 1629 -429 264
-915 380 -1420 338z m1158 -2384 c116 -27 268 -159 332 -288 64 -130 58 -205
-20 -276 -102 -95 -170 -110 -376 -83 -85 11 -170 25 -189 32 -87 30 -211 149
-231 222 -20 76 1 141 77 235 83 101 141 135 289 166 37 7 60 6 118 -8z"/>
<path d="M120 13250 l0 -800 1125 0 1125 0 0 -2905 c0 -1930 3 -2905 10 -2905
6 0 529 0 1163 0 l1152 0 3 2887 2 2888 1170 -1 1170 -1 0 818 0 819 -3460 0
-3460 0 0 -800z"/>
<path d="M15317 13086 c-144 -324 -201 -593 -201 -951 -1 -294 33 -504 121
-760 280 -811 986 -1398 1843 -1532 144 -22 509 -25 645 -5 529 79 981 306
1350 681 49 50 84 91 78 91 -7 0 -57 -9 -111 -19 -112 -22 -187 -51 -322 -126
-266 -146 -650 -313 -823 -356 -118 -30 -392 -38 -507 -15 -124 26 -320 93
-390 134 -80 47 -195 160 -239 236 -38 63 -141 354 -171 481 -45 189 -54 280
-54 545 1 161 8 325 19 445 25 269 10 733 -27 800 -37 69 -76 83 -149 55 -65
-24 -147 -26 -285 -5 -89 14 -111 13 -218 -1 -134 -18 -190 -12 -280 30 -113
52 -192 163 -218 304 l-13 73 -48 -105z"/>
<path d="M7735 11539 c-530 -51 -826 -309 -910 -795 -12 -69 -18 -155 -18
-286 l0 -188 -123 0 -124 0 0 -470 0 -470 125 0 125 0 0 -1335 0 -1335 575 0
575 0 0 1335 0 1335 340 0 340 0 0 470 0 470 -341 0 -342 0 6 76 c8 110 36
161 109 198 l57 28 347 -1 346 -2 -7 28 c-3 16 -58 204 -122 418 -64 215 -125
423 -136 463 l-20 72 -356 -1 c-196 -1 -396 -6 -446 -10z"/>
<path d="M10065 10363 c-590 -53 -957 -261 -1145 -648 -111 -228 -161 -483
-161 -823 0 -318 56 -602 176 -887 274 -655 822 -1134 1480 -1295 172 -42 294
-50 731 -50 227 0 414 2 414 5 0 2 63 219 140 481 77 263 140 481 140 485 0 4
-190 9 -422 12 -397 4 -432 6 -561 30 -76 14 -140 27 -143 30 -2 2 58 41 134
86 545 319 909 681 1065 1060 132 320 141 729 22 977 -146 304 -478 484 -984
534 -94 9 -791 12 -886 3z m635 -988 c97 -26 141 -78 141 -169 0 -199 -255
-459 -703 -716 -67 -39 -125 -67 -129 -63 -13 15 -48 148 -64 243 -51 317 29
552 222 653 79 41 131 56 228 67 86 10 239 3 305 -15z"/>
<path d="M14087 10318 c-255 -19 -477 -102 -639 -239 -26 -21 -49 -39 -52 -39
-3 0 -6 45 -6 100 l0 100 -555 0 -555 0 0 -1810 0 -1810 580 0 580 0 0 1143 0
1142 45 60 c129 174 340 282 614 316 l101 13 0 512 c0 282 -3 514 -7 516 -5 2
-52 1 -106 -4z"/>
<path d="M5205 8475 l0 -1835 30 0 c17 0 276 -1 577 -3 l548 -2 2 1815 c2 998
2 1825 0 1838 l-3 22 -577 0 -577 0 0 -1835z"/>
</g>
</svg>
